# This file uses centimeters as units for non-parametric coordinates.

mtllib MOD_TreeBranch.mtl
g default
v 0.251942 -0.407497 0.361689
v 1.045940 -0.573072 0.382684
v 1.027808 -0.061554 -0.017416
v 0.256236 0.109270 -0.036741
v 1.870238 -0.694033 0.348090
v 1.864273 -0.187763 -0.034117
v 2.656124 -0.594306 0.272698
v 2.650160 -0.170347 -0.017655
v 1.039021 -0.538955 -0.410837
v 0.242876 -0.370994 -0.396999
v 1.861172 -0.657768 -0.410598
v 2.646819 -0.557803 -0.485751
v -0.005249 0.022904 -0.083742
v -0.017894 0.159849 -0.041513
v 0.924979 -0.072767 -0.022188
v 0.917822 -0.257906 -0.094955
v -0.015508 0.021234 0.060361
v 0.922832 -0.236434 0.079686
v 1.871192 -0.223551 -0.031731
v 1.879781 -0.307054 -0.107123
v 1.882644 -0.302044 0.043422
v 2.912360 -0.179413 -0.020518
vt 0.000000 0.000000
vt 0.333300 0.000000
vt 0.333300 0.295600
vt 0.000000 0.295600
vt 0.666700 0.000000
vt 0.666700 0.295600
vt 1.000000 0.000000
vt 1.000000 0.295600
vt 0.000000 0.297100
vt 0.333300 0.297100
vt 0.333300 0.001500
vt 0.000000 0.001500
vt 0.666700 0.297100
vt 0.666700 0.001500
vt 1.000000 0.297100
vt 1.000000 0.001500
vt 0.362400 0.000000
vt 0.523500 0.000000
vt 0.523500 0.887500
vt 0.362400 0.887500
vt 0.040300 0.000000
vt 0.201300 0.000000
vt 0.201300 0.887500
vt 0.040300 0.887500
vt 0.523500 1.775100
vt 0.362400 1.775100
vt 0.201300 1.775100
vt 0.040300 1.775100
vt 0.483200 2.659700
vt 0.040300 2.665600
vn 0.110981 0.610486 0.784213
vn 0.113045 0.608580 0.785399
vn 0.179640 0.982265 0.053706
vn 0.196943 0.980164 0.022179
vn 0.053601 0.595307 0.801709
vn 0.032400 0.999192 0.023800
vn 0.007200 0.565279 0.824869
vn -0.009200 0.989652 0.143193
vn 0.113003 0.626215 -0.771418
vn 0.111399 0.594296 -0.796494
vn -0.036998 0.627360 -0.777850
vn -0.065903 0.712832 -0.698231
vn -0.138000 -0.453901 -0.880301
vn 0.255201 0.962605 -0.090901
vn 0.186200 0.978298 -0.090900
vn -0.094203 -0.636718 -0.765321
vn -0.119502 -0.266804 0.956313
vn -0.070500 -0.457703 0.886306
vn 0.039100 0.998605 -0.035500
vn 0.034001 -0.450512 -0.892123
vn 0.072001 -0.424403 0.902606
vn 0.995478 0.094398 0.010600
s 1
g polySurface3
usemtl ___Default
f 1/1/1 2/2/2 3/3/3 4/4/4
f 2/2/2 5/5/5 6/6/6 3/3/3
f 5/5/5 7/7/7 8/8/8 6/6/6
f 4/9/4 3/10/3 9/11/9 10/12/10
f 3/10/3 6/13/6 11/14/11 9/11/9
f 6/13/6 8/15/8 12/16/12 11/14/11
s 2
f 13/17/13 14/18/14 15/19/15 16/20/16
f 14/21/14 17/22/17 18/23/18 15/24/15
f 17/22/17 13/17/13 16/20/16 18/23/18
f 16/20/16 15/19/15 19/25/19 20/26/20
f 15/24/15 18/23/18 21/27/21 19/28/19
f 18/23/18 16/20/16 20/26/20 21/27/21
f 20/26/20 19/25/19 22/29/22
f 19/28/19 21/27/21 22/30/22
f 21/27/21 20/26/20 22/29/22
