# 3ds Max Wavefront OBJ Exporter v0.97b - (c)2007 guruware
# File Created: 29.06.2013 19:25:02

mtllib MOD_Banner.mtl

#
# object Banner
#

v  -0.0405 2.9364 0.0250
v  0.0095 2.9364 0.0250
v  0.0095 2.9364 -0.0250
v  -0.0405 2.9364 -0.0250
v  -0.0250 -0.0636 -0.0269
v  0.0250 -0.0636 -0.0269
v  -0.0046 0.9364 -0.0202
v  -0.0546 0.9364 -0.0202
v  -0.0111 1.9364 -0.0116
v  -0.0611 1.9364 -0.0116
v  0.0250 -0.0636 -0.0769
v  -0.0046 0.9364 -0.0702
v  -0.0111 1.9364 -0.0616
v  -0.0250 -0.0636 -0.0769
v  -0.0546 0.9364 -0.0702
v  -0.0611 1.9364 -0.0616
v  -0.2164 1.5267 0.0447
v  0.0000 1.4191 0.0447
v  0.0000 1.8776 0.0447
v  -0.3051 1.9852 0.0447
v  0.2164 1.5267 0.0447
v  0.3051 1.9852 0.0447
v  0.0000 2.3362 0.0447
v  -0.3516 2.4438 0.0447
v  0.3516 2.4438 0.0447
v  0.0000 2.7948 0.0447
v  -0.4093 2.9024 0.0110
v  0.4093 2.9024 0.0110
v  0.4255 2.8883 0.0152
v  0.4255 2.8883 -0.0152
v  0.4255 2.9186 -0.0152
v  0.4255 2.9186 0.0152
v  -0.4536 2.8883 0.0152
v  -0.4536 2.9186 0.0152
v  -0.4536 2.9186 -0.0152
v  -0.4536 2.8883 -0.0152
v  0.2057 2.8973 0.0152
v  0.2057 2.8670 0.0152
v  -0.0140 2.8926 0.0152
v  -0.0140 2.8623 0.0152
v  -0.2338 2.8973 0.0152
v  -0.2338 2.8670 0.0152
v  0.2057 2.8973 -0.0152
v  -0.0140 2.8926 -0.0152
v  -0.2338 2.8973 -0.0152
v  0.2057 2.8670 -0.0152
v  -0.0140 2.8623 -0.0152
v  -0.2338 2.8670 -0.0152
# 48 vertices

vn 0.0000 1.0000 -0.0000
vn 0.0000 -0.0067 1.0000
vn 0.0000 -0.0076 1.0000
vn 0.0000 -0.0077 1.0000
vn 0.0000 -0.0226 0.9997
vn 0.0000 -0.0225 0.9997
vn 0.0000 -0.0365 0.9993
vn 0.9996 0.0295 -0.0000
vn 0.9998 0.0181 -0.0000
vn 0.9998 0.0180 -0.0000
vn 1.0000 -0.0068 -0.0000
vn 1.0000 -0.0072 -0.0000
vn 0.9998 -0.0206 -0.0000
vn 0.0000 0.0067 -1.0000
vn 0.0000 0.0077 -1.0000
vn 0.0000 0.0076 -1.0000
vn 0.0000 0.0225 -0.9997
vn 0.0000 0.0226 -0.9997
vn 0.0000 0.0365 -0.9993
vn -0.9996 -0.0295 -0.0000
vn -0.9998 -0.0180 -0.0000
vn -0.9998 -0.0181 -0.0000
vn -1.0000 0.0072 -0.0000
vn -1.0000 0.0068 -0.0000
vn -0.9998 0.0206 -0.0000
vn -0.0000 -0.0000 1.0000
vn 0.0000 -0.0000 1.0000
vn 0.0058 0.0079 1.0000
vn -0.0187 0.0187 0.9996
vn -0.0147 0.0479 0.9987
vn 0.0225 0.0186 0.9996
vn -0.0648 0.0649 0.9958
vn 0.0377 0.0321 0.9988
vn 1.0000 0.0000 -0.0000
vn -1.0000 0.0000 -0.0000
vn 0.0000 0.0000 1.0000
vn -0.0000 0.0000 1.0000
vn -0.0964 0.9953 -0.0000
vn -0.0589 0.9983 -0.0000
vn -0.0000 1.0000 -0.0000
vn 0.0589 0.9983 -0.0000
vn 0.0964 0.9953 -0.0000
vn 0.0000 0.0000 -1.0000
vn -0.0000 0.0000 -1.0000
vn 0.0964 -0.9953 -0.0000
vn 0.0589 -0.9983 -0.0000
vn 0.0000 -1.0000 -0.0000
vn -0.0589 -0.9983 -0.0000
vn -0.0964 -0.9953 -0.0000
# 49 vertex normals

vt -0.5641 -0.0551 0.0000
vt -0.6758 -0.0551 0.0000
vt -0.6760 -0.1657 0.0000
vt -0.5648 -0.1662 0.0000
vt -0.5641 2.5165 0.0000
vt -0.6758 2.5165 0.0000
vt -0.6758 1.7117 0.0000
vt -0.5641 1.7117 0.0000
vt -0.6758 0.7332 0.0000
vt -0.5641 0.7332 0.0000
vt -0.7545 2.5165 0.0000
vt -0.7545 1.7117 0.0000
vt -0.7545 0.7332 0.0000
vt -0.7545 -0.0551 0.0000
vt -0.4135 2.5165 0.0000
vt -0.4726 2.5165 0.0000
vt -0.4726 1.7117 0.0000
vt -0.4135 1.7117 0.0000
vt -0.4726 0.7332 0.0000
vt -0.4135 0.7332 0.0000
vt -0.4726 -0.0551 0.0000
vt -0.4135 -0.0551 0.0000
vt 0.3239 -0.3190 0.0000
vt 0.5641 -0.4545 0.0000
vt 0.5919 0.0672 0.0000
vt 0.2520 0.2081 0.0000
vt 0.8169 -0.3449 0.0000
vt 0.9454 0.1717 0.0000
vt 0.6194 0.5895 0.0000
vt 0.2256 0.7316 0.0000
vt 1.0257 0.6911 0.0000
vt 0.6452 1.1114 0.0000
vt 0.1837 1.2573 0.0000
vt 1.1183 1.2113 0.0000
vt -0.1533 2.6319 0.0000
vt -0.2695 2.6319 0.0000
vt -0.2695 2.5126 0.0000
vt -0.1533 2.5126 0.0000
vt -0.1533 -1.0624 0.0000
vt -0.1533 -0.9431 0.0000
vt -0.2695 -0.9431 0.0000
vt -0.2695 -1.0624 0.0000
vt -0.0386 2.5126 0.0000
vt -0.1533 1.6460 0.0000
vt -0.0386 1.6460 0.0000
vt -0.1533 0.7840 0.0000
vt -0.0386 0.7840 0.0000
vt -0.1533 -0.0777 0.0000
vt -0.0386 -0.0777 0.0000
vt -0.0386 -0.9431 0.0000
vt -0.2695 1.6460 0.0000
vt -0.2695 0.7840 0.0000
vt -0.2695 -0.0777 0.0000
vt -0.3785 2.5126 0.0000
vt -0.3785 1.6460 0.0000
vt -0.3785 0.7840 0.0000
vt -0.3785 -0.0777 0.0000
vt -0.3785 -0.9431 0.0000
vt 0.0814 2.5126 0.0000
vt 0.0814 1.6460 0.0000
vt 0.0814 0.7840 0.0000
vt 0.0814 -0.0777 0.0000
vt 0.0814 -0.9431 0.0000
# 63 texture coords

g Banner
usemtl wire_061135006
s 4
f 1/1/1 2/2/1 3/3/1 4/4/1 
s 8
f 5/5/2 6/6/2 7/7/3 8/8/4 
f 8/8/4 7/7/3 9/9/5 10/10/6 
f 10/10/6 9/9/5 2/2/7 1/1/7 
s 16
f 6/6/8 11/11/8 12/12/9 7/7/10 
f 7/7/10 12/12/9 13/13/11 9/9/12 
f 13/13/11 3/14/13 2/2/13 9/9/12 
s 32
f 11/15/14 14/16/14 15/17/15 12/18/16 
f 12/18/16 15/17/15 16/19/17 13/20/18 
f 16/19/17 4/21/19 3/22/19 13/20/18 
s 64
f 14/16/20 5/5/20 8/8/21 15/17/22 
f 15/17/22 8/8/21 10/10/23 16/19/24 
f 10/10/23 1/1/25 4/21/25 16/19/24 
s 1
f 17/23/26 18/24/26 19/25/26 20/26/26 
f 18/24/26 21/27/27 22/28/27 19/25/26 
f 20/26/26 19/25/26 23/29/28 24/30/29 
f 19/25/26 22/28/27 25/31/30 23/29/28 
f 24/30/29 23/29/28 26/32/31 27/33/32 
f 23/29/28 25/31/30 28/34/33 26/32/31 
s 2
f 29/35/34 30/36/34 31/37/34 32/38/34 
s 4
f 33/39/35 34/40/35 35/41/35 36/42/35 
s 8
f 29/43/36 32/38/36 37/44/36 38/45/36 
f 38/45/36 37/44/36 39/46/36 40/47/36 
f 40/47/36 39/46/36 41/48/37 42/49/37 
f 42/49/37 41/48/37 34/40/37 33/50/37 
s 16
f 32/38/38 31/37/38 43/51/39 37/44/39 
f 37/44/39 43/51/39 44/52/40 39/46/40 
f 39/46/40 44/52/40 45/53/41 41/48/41 
f 41/48/41 45/53/41 35/41/42 34/40/42 
s 32
f 31/37/43 30/54/43 46/55/43 43/51/43 
f 43/51/43 46/55/43 47/56/43 44/52/43 
f 44/52/43 47/56/43 48/57/44 45/53/44 
f 45/53/44 48/57/44 36/58/44 35/41/44 
s 64
f 30/59/45 29/43/45 38/45/46 46/60/46 
f 46/60/46 38/45/46 40/47/47 47/61/47 
f 47/61/47 40/47/47 42/49/48 48/62/48 
f 48/62/48 42/49/48 33/50/49 36/63/49 
# 37 polygons

